<svg aria-hidden="true" style="position: absolute; width: 0; height: 0; overflow: hidden;" version="1.1" xmlns="http://www.w3.org/2000/svg" xmlns:xlink="http://www.w3.org/1999/xlink">
<defs>

<symbol id="twitter" viewBox="0 0 32 32">
<path  d="M30.134 5.6c-1.184 0.834-2.496 1.472-3.883 1.891-1.021-1.17-2.514-1.905-4.18-1.905-3.058 0-5.538 2.479-5.538 5.538 0 0.027 0 0.054 0.001 0.080l-0-0.004v1.237c-0.102 0.003-0.222 0.004-0.343 0.004-4.441 0-8.37-2.197-10.757-5.564l-0.028-0.041s-4.946 11.125 6.182 16.070c-2.264 1.555-5.064 2.483-8.081 2.483-0.202 0-0.403-0.004-0.603-0.012l0.029 0.001c11.128 6.182 24.728 0 24.728-14.218 0-0.346-0.034-0.688-0.099-1.027 1.226-1.209 2.127-2.746 2.559-4.469l0.014-0.066z"></path>
</symbol>
<symbol id="facebook" viewBox="0 0 32 32">
<path  d="M22.4 2.667h-4c-3.682 0-6.666 2.984-6.667 6.666v4h-4v5.333h4v10.667h5.334v-10.666h4l1.333-5.336h-5.333v-4c0.001-0.735 0.597-1.331 1.333-1.331 0 0 0 0 0 0h4v-5.333z"></path>
</symbol>
<symbol id="linkedin-in" viewBox="0 0 32 32">
<path  d="M8.269 28h-5.806v-18.694h5.806v18.694zM5.36 6.757c-1.856 0-3.362-1.539-3.362-3.395s1.505-3.362 3.362-3.362 3.362 1.505 3.362 3.362v0c0 1.856-1.504 3.395-3.36 3.395zM29.994 28h-5.792v-9.101c0-2.168-0.043-4.949-3.018-4.949-3.018 0-3.482 2.355-3.482 4.794v9.256h-5.798v-18.694h5.568v2.55h0.080c0.774-1.469 2.667-3.019 5.491-3.019 5.875 0 6.955 3.869 6.955 8.894v10.269h-0.005z"></path>
</symbol>
<symbol id="android" viewBox="0 0 28 32">
<path fill="#fff" style="fill: var(--color1, #fff)" d="M5.26 24.204c0 0.836 0.708 1.517 1.578 1.517h1.804v4.3c0 1.090 0.908 1.979 2.022 1.979 1.12 0 2.023-0.885 2.023-1.979v-4.303h3.149v4.3c0 1.090 0.907 1.979 2.022 1.979 1.119 0 2.023-0.885 2.023-1.979v-4.3h1.804c0.87 0 1.578-0.682 1.578-1.518v-14.114h-18.004v14.118zM18.489 2.773l1.664-2.323c0.096-0.136 0.074-0.318-0.055-0.407-0.13-0.086-0.316-0.043-0.412 0.092l-1.726 2.415c-1.099-0.425-2.37-0.671-3.699-0.671-0.012 0-0.025 0-0.037 0h0.002c-1.331 0-2.597 0.24-3.734 0.671l-1.727-2.411c-0.096-0.135-0.281-0.182-0.411-0.092-0.13 0.085-0.152 0.264-0.056 0.407l1.664 2.321c-2.646 1.186-4.498 3.432-4.735 6.057h18.005c-0.245-2.628-2.102-4.875-4.743-6.060zM10.424 6.433c-0.197 0-0.39-0.056-0.554-0.162-0.162-0.104-0.288-0.251-0.365-0.425l-0.002-0.006c-0.048-0.108-0.076-0.235-0.076-0.368 0-0.066 0.007-0.131 0.020-0.193l-0.001 0.006c0.038-0.187 0.133-0.357 0.273-0.492 0.184-0.174 0.433-0.28 0.707-0.28 0.137 0 0.267 0.027 0.386 0.075l-0.007-0.002c0.181 0.073 0.338 0.196 0.447 0.354s0.168 0.344 0.168 0.533c-0.001 0.255-0.107 0.5-0.293 0.679s-0.439 0.282-0.703 0.282zM18.144 6.433c-0.197 0-0.389-0.056-0.554-0.162-0.162-0.104-0.288-0.251-0.365-0.425l-0.002-0.006c-0.048-0.108-0.075-0.234-0.075-0.366 0-0.067 0.007-0.132 0.020-0.194l-0.001 0.006c0.038-0.187 0.133-0.357 0.272-0.492 0.184-0.174 0.433-0.28 0.707-0.28 0.137 0 0.267 0.027 0.386 0.075l-0.007-0.002c0.182 0.073 0.338 0.196 0.447 0.354s0.169 0.344 0.169 0.533c-0.002 0.255-0.107 0.5-0.293 0.679s-0.44 0.282-0.704 0.282zM26.42 10.029c-1.118 0-2.022 0.886-2.022 1.979v7.728c0 1.090 0.908 1.979 2.023 1.979 1.119 0 2.023-0.885 2.023-1.979v-7.732c0.004-1.093-0.9-1.975-2.023-1.975zM2.021 10.029c-1.118 0-2.021 0.886-2.021 1.98v7.728c0 1.090 0.907 1.979 2.022 1.979 1.119 0 2.023-0.885 2.023-1.979v-7.732c0-1.093-0.908-1.975-2.023-1.975z"></path>
</symbol>
<symbol id="apl" viewBox="0 0 27 32">
<path fill="#fff" style="fill: var(--color1, #fff)" d="M20.372 7.314c-2.881 0-4.099 1.384-6.105 1.384-2.057 0-3.626-1.374-6.122-1.374-2.443 0-5.049 1.502-6.704 4.060-2.323 3.609-1.929 10.405 1.834 16.194 1.346 2.072 3.143 4.396 5.501 4.422h0.043c2.048 0 2.658-1.351 5.477-1.367h0.044c2.778 0 3.334 1.359 5.376 1.359h0.042c2.358-0.025 4.251-2.6 5.597-4.665 0.969-1.485 1.329-2.23 2.073-3.91-5.444-2.081-6.318-9.851-0.935-12.829-1.643-2.071-3.952-3.271-6.128-3.271l0.007-0.003zM20.055 0c-1.658 0.111-3.593 1.147-4.726 2.502-1.028 1.227-1.874 3.048-1.541 4.813h0.133c1.765 0 3.573-1.044 4.629-2.383 1.017-1.274 1.788-3.079 1.506-4.932z"></path>
</symbol>

<symbol id="burger" viewBox="0 0 50 32">
<path d="M48 4c1.105 0 2-0.895 2-2s-0.895-2-2-2v0 4zM0 4h48v-4h-48v4zM48 18c1.105 0 2-0.895 2-2s-0.895-2-2-2v0 4zM0 18h48v-4h-48v4zM48 32c1.105 0 2-0.895 2-2s-0.895-2-2-2v0 4zM0 32h48v-4h-48v4z"></path>
</symbol>

<symbol id="arrow-right" viewBox="0 0 32 32">
<path fill="#fff" style="fill: var(--color1, #fff)" d="M9.6 24l8-8-8-8 1.6-3.2 11.2 11.2-11.2 11.2-1.6-3.2z"></path>
</symbol>


<symbol id="close" viewBox="0 0 32 32">
<path fill="#fff" style="fill: var(--color1, #fff)" d="M23.884 6.706l-7.884 7.884-7.884-7.884c-0.177-0.162-0.414-0.262-0.674-0.262-0.551 0-0.998 0.447-0.998 0.998 0 0.26 0.099 0.497 0.262 0.674l-0.001-0.001 7.88 7.884-7.882 7.882c-0.181 0.181-0.293 0.43-0.293 0.706 0 0.551 0.447 0.998 0.998 0.998 0.275 0 0.524-0.111 0.705-0.292v0l7.886-7.882 7.884 7.884c0.177 0.162 0.414 0.262 0.674 0.262 0.551 0 0.998-0.447 0.998-0.998 0-0.26-0.099-0.497-0.262-0.674l0.001 0.001-7.884-7.884 7.884-7.886c0.181-0.181 0.293-0.43 0.293-0.706 0-0.551-0.447-0.998-0.998-0.998-0.275 0-0.524 0.111-0.705 0.292v0 0.002z"></path>
</symbol>

<symbol id="close-bakdrop" viewBox="0 0 32 32">
<path fill="#fff" style="fill: var(--color1, #fff)" d="M17.254 16l7.368-7.369c0.129-0.153 0.208-0.353 0.208-0.571 0-0.491-0.398-0.889-0.889-0.889-0.218 0-0.418 0.078-0.572 0.209l0.001-0.001-7.369 7.368-7.369-7.377c-0.163-0.173-0.394-0.281-0.65-0.281-0.493 0-0.893 0.4-0.893 0.893 0 0.256 0.108 0.487 0.28 0.649l0 0 7.377 7.369-7.377 7.369c-0.201 0.165-0.328 0.412-0.328 0.69 0 0.492 0.399 0.89 0.89 0.89 0.278 0 0.526-0.127 0.689-0.326l0.001-0.002 7.378-7.368 7.369 7.368c0.153 0.129 0.353 0.208 0.571 0.208 0.491 0 0.889-0.398 0.889-0.889 0-0.218-0.078-0.418-0.209-0.572l0.001 0.001-7.368-7.369z"></path>
</symbol>

<symbol id="download" viewBox="0 0 24 32">
<path fill="#fff" style="fill: var(--color1, #fff)" d="M14.088 8.425v-8.425h-12.579c-0.836 0-1.509 0.663-1.509 1.487v28.743c0 0.824 0.673 1.487 1.509 1.487h21.132c0.836 0 1.509-0.663 1.509-1.487v-20.318h-8.553c-0.83 0-1.509-0.669-1.509-1.487zM18.896 21.518l-6.064 5.928c-0.195 0.19-0.462 0.307-0.756 0.307s-0.561-0.117-0.756-0.307l0 0-6.064-5.928c-0.638-0.624-0.19-1.695 0.708-1.695h4.1v-4.956c0-0.548 0.45-0.991 1.006-0.991h2.012c0.556 0 1.007 0.444 1.007 0.991v4.956h4.099c0.898 0 1.346 1.071 0.709 1.695zM23.711 6.504l-6.157-6.071c-0.274-0.268-0.649-0.434-1.063-0.434-0.002 0-0.004 0-0.007 0h-0.383v7.929h8.050v-0.378c0-0.39-0.157-0.768-0.44-1.047z"></path>
</symbol>

<symbol id="right-arrow-modal" viewBox="0 0 32 32">
<path fill="#fff" style="fill: var(--color1, #fff)" d="M7.383 29.182c0.179 0.095 0.391 0.15 0.616 0.15 0.284 0 0.548-0.089 0.765-0.24l-0.004 0.003 17.333-12c0.349-0.244 0.575-0.644 0.575-1.096s-0.226-0.852-0.57-1.093l-0.004-0.003-17.333-12c-0.212-0.148-0.475-0.237-0.759-0.237-0.736 0-1.333 0.597-1.333 1.333 0 0.001 0 0.001 0 0.002v-0 24c0 0.001 0 0.001 0 0.002 0 0.509 0.286 0.952 0.706 1.176l0.007 0.003z"></path>
</symbol>

</defs>
</svg>
